<svg xmlns="http://www.w3.org/2000/svg" xmlns:xlink="http://www.w3.org/1999/xlink" width="48" height="48" viewBox="0 0 48 48">
  <defs>
    <filter id="Path_1824" x="0" y="0" width="48" height="48" filterUnits="userSpaceOnUse">
      <feOffset dy="3" input="SourceAlpha"/>
      <feGaussianBlur stdDeviation="3" result="blur"/>
      <feFlood flood-opacity="0.161"/>
      <feComposite operator="in" in2="blur"/>
      <feComposite in="SourceGraphic"/>
    </filter>
  </defs>
  <g id="Group_3282" data-name="Group 3282" transform="translate(-305 -14)">
    <path id="Path_1823" data-name="Path 1823" d="M22.722,10.05A12.671,12.671,0,1,0,35.393,22.721,12.686,12.686,0,0,0,22.722,10.05m8.257,5.973-.031.015A.129.129,0,0,1,30.79,16a4.241,4.241,0,0,0-1.36-1.03,3.357,3.357,0,0,0-4.337,1.039,6.076,6.076,0,0,0-.825,4.5l.189,1.368q.03.219.06.435c.358,2.569.411,4.988-1.214,6.976a6.339,6.339,0,0,1-4.808,1.817,4.918,4.918,0,0,1-4.08-2.136.126.126,0,0,1-.016-.11.131.131,0,0,1,.078-.083.13.13,0,0,1,.036-.008.134.134,0,0,1,.119.06,4.46,4.46,0,0,0,3.864,2.05,5.215,5.215,0,0,0,2.254-.453,3.74,3.74,0,0,0,1.508-1.413,8.256,8.256,0,0,0,.967-5.184L23,21.439c-.154-1.637-.562-4.576,1.7-6.107a5.667,5.667,0,0,1,3.116-1,4.519,4.519,0,0,1,3.2,1.485.127.127,0,0,1,.033.11.13.13,0,0,1-.071.094" transform="translate(306.278 12.279)" fill="#489bd5"/>
    <g transform="matrix(1, 0, 0, 1, 305, 14)" filter="url(#Path_1824)">
      <path id="Path_1824-2" data-name="Path 1824" d="M15,0A15,15,0,1,0,30,15,15,15,0,0,0,15,0m0,28.344A13.344,13.344,0,1,1,28.343,15,13.359,13.359,0,0,1,15,28.343" transform="translate(9 6)" fill="#489bd5"/>
    </g>
  </g>
</svg>
